<svg width="500" height="500" viewBox="0 0 500 500" fill="none" xmlns="http://www.w3.org/2000/svg">
<g clip-path="url(#clip0_1_34)">
<rect width="500" height="500" fill="#C1C4D6"/>
<path d="M274.379 -5.99997L273.984 500" stroke="white" stroke-width="3"/>
<path d="M250 512C266.858 362.106 196.786 250.467 173.427 168.117C150.068 85.7671 141.688 -23 141.688 -23" stroke="white" stroke-width="3"/>
<path d="M196.158 -9.91891C185.666 115.663 128.679 222.342 90.1379 287.833C51.5966 353.324 -2.83999 427.869 -2.83999 427.869" stroke="white" stroke-width="3"/>
<path d="M424 -4C361.107 116.599 354.002 245.559 353.067 326.691C352.133 407.823 361.251 506 361.251 506" stroke="white" stroke-width="3"/>
<path d="M441 500C524.146 276.998 462.025 169.05 414.066 108.808C366.107 48.5662 282.337 -2.09291 282.337 -2.09291" stroke="white" stroke-width="3"/>
<ellipse cx="151" cy="49.5" rx="13" ry="13.5" fill="#897AE3"/>
<circle cx="274.5" cy="113.5" r="17.5" fill="#10899E"/>
<circle cx="349" cy="45" r="14" fill="#FD8704"/>
<path d="M337.086 209.326C336.334 208.303 336.091 206.993 336.458 205.716L341.859 186.413C342.226 185.135 343.12 184.083 344.361 183.564L362.851 175.433C364.07 174.886 365.42 174.944 366.578 175.537L384.233 184.707C384.801 184.99 385.294 185.415 385.671 185.927C386.047 186.438 386.306 187.035 386.407 187.662L389.939 207.224C390.162 208.506 389.815 209.812 388.93 210.814L375.667 226.048C374.782 227.05 373.532 227.618 372.204 227.589L352.167 227.004C350.868 226.952 349.66 226.352 348.907 225.329L337.086 209.326Z" fill="#3366FF"/>
<path d="M39.5582 335.435C40.3095 334.941 41.2421 334.815 42.1266 335.116L55.498 339.555C56.3826 339.856 57.0864 340.518 57.4008 341.406L62.3661 354.65C62.7013 355.524 62.6049 356.469 62.1393 357.261L54.9552 369.336C54.7327 369.725 54.4129 370.057 54.0372 370.304C53.6616 370.551 53.2303 370.712 52.7847 370.762L38.8634 372.58C37.9517 372.693 37.0463 372.406 36.3772 371.751L26.1948 361.934C25.5256 361.279 25.1765 360.384 25.2519 359.453L26.4887 345.418C26.5782 344.508 27.0505 343.681 27.8018 343.187L39.5582 335.435Z" fill="#3366FF"/>
<path d="M500 420C242.683 438.847 125.223 331.579 60.5948 256.606C-4.03343 181.633 -55.3688 69.1978 -55.3688 69.1978" stroke="white" stroke-width="3"/>
<circle cx="27.5" cy="217.5" r="10.5" fill="#996A13"/>
<circle cx="404.5" cy="423.5" r="12.5" fill="#429777"/>
</g>
<defs>
<clipPath id="clip0_1_34">
<rect width="500" height="500" fill="white"/>
</clipPath>
</defs>
</svg>
